<?xml version="1.0" encoding="UTF-8"?>
<svg version="1.1" xmlns="http://www.w3.org/2000/svg" width="1024" height="1024">
<mask id="doorCutout" maskUnits="userSpaceOnUse" x="0" y="0" width="1024" height="1024">
<rect width="1024" height="1024" fill="white"/>
<path d="M0 0 C0.71968964 -0.00700928 1.43937927 -0.01401855 2.18087769 -0.02124023 C4.53968888 -0.03872211 6.89728194 -0.02723241 9.25610352 -0.01367188 C10.90845467 -0.01636993 12.56080427 -0.02025496 14.21315002 -0.02526855 C17.6687844 -0.03115055 21.12400388 -0.02264408 24.57958984 -0.00390625 C28.99232552 0.01886496 33.40408691 0.00576414 37.81678677 -0.01819611 C41.22706843 -0.03270484 44.63712214 -0.02802469 48.04741096 -0.01768494 C49.67358581 -0.0150307 51.29978186 -0.01824119 52.92593193 -0.02760315 C69.87342689 -0.10376397 69.87342689 -0.10376397 75.44750977 4.51757812 C81.77544038 11.15115655 81.12718673 19.01439831 81.01513672 27.65429688 C81.01372463 29.18255059 81.01452136 30.7108077 81.01734924 32.23905945 C81.01877857 36.36891989 80.98946805 40.49804807 80.95447946 44.62773895 C80.92313473 48.95051825 80.92027884 53.273316 80.91435242 57.59619141 C80.89883773 65.773633 80.85784165 73.95073871 80.80760497 82.12803268 C80.74116384 93.18398679 80.71425777 104.24003333 80.68509388 115.29613686 C80.63813785 132.70353533 80.5385101 150.11022514 80.44750977 167.51757812 C47.44750977 167.51757812 14.44750977 167.51757812 -19.55249023 167.51757812 C-19.75400541 128.96996495 -19.75400541 128.96996495 -19.79663086 112.81054688 C-19.82629345 101.65499371 -19.86115507 90.49962943 -19.9296875 79.34423828 C-19.9795767 71.2196221 -20.01179411 63.09515924 -20.02293271 54.97039413 C-20.02944217 50.66966519 -20.044704 46.36937479 -20.08114052 42.06878662 C-20.11518745 38.01724955 -20.12552586 33.96632987 -20.11802864 29.91466331 C-20.11939933 28.43121162 -20.12928048 26.94773837 -20.14851761 25.46441078 C-20.31994571 11.55888315 -20.31994571 11.55888315 -16.08115768 6.03028107 C-11.33789555 1.33655478 -6.67499482 0.01643261 0 0 Z " fill="black" transform="translate(481.552490234375,561.482421875)"/>
</mask>
<g mask="url(#doorCutout)">
<path d="M0 0 C4.77025411 3.24811326 9.54995152 6.4822498 14.33056641 9.71508789 C15.31726318 10.38239929 16.30395996 11.04971069 17.32055664 11.73724365 C27.56943173 18.65721894 37.89827701 25.45356978 48.23681641 32.23852539 C63.70757381 42.39575713 79.08876899 52.67577653 94.4140625 63.05102539 C107.95573396 72.21541636 121.56891245 81.26359889 135.23681641 90.23852539 C150.70586805 100.39616199 166.08681738 110.67430759 181.41104126 121.04901123 C194.10175317 129.63768216 206.84992823 138.13219047 219.65756226 146.54550171 C226.93757749 151.32917217 234.20919481 156.12561112 241.48095703 160.92181396 C243.34111617 162.14806389 245.20180618 163.37350884 247.06298828 164.59820557 C252.65071885 168.27520707 258.22895331 171.96583466 263.7940979 175.67694092 C265.52028129 176.82484576 267.24966244 177.96795933 268.98251343 179.10577393 C283.07952443 188.36868628 295.16273494 197.52844414 300.04541016 214.55883789 C302.97062567 228.72091575 301.32633387 242.71379426 293.88916016 255.24243164 C286.10852553 266.99615628 274.11859478 274.86442543 260.23681641 277.73852539 C258.28165343 277.82493738 256.32376637 277.85623255 254.36669922 277.85205078 C253.18577698 277.85197525 252.00485474 277.85189972 250.78814697 277.8518219 C249.51823914 277.84666061 248.2483313 277.84149933 246.93994141 277.83618164 C245.63603455 277.83476669 244.33212769 277.83335175 242.9887085 277.83189392 C239.52978585 277.82808406 236.0709055 277.8182669 232.61199951 277.80718994 C229.07939221 277.79694285 225.54677805 277.79238924 222.01416016 277.78735352 C215.08836158 277.77664321 208.16259103 277.75958523 201.23681641 277.73852539 C201.23795557 278.34510426 201.23909473 278.95168312 201.24026841 279.57664317 C201.30746129 315.55953322 201.35890569 351.54241244 201.39001239 387.52535222 C201.39376433 391.84974664 201.39764732 396.17414093 201.40161133 400.49853516 C201.40239826 401.35941279 201.40318519 402.22029042 201.40399597 403.10725526 C201.41703558 417.03062396 201.44068144 430.95395535 201.46827479 444.87730195 C201.49636923 459.17314928 201.51300119 473.46897712 201.51908189 487.76485091 C201.52318997 496.58001117 201.53614612 505.39506595 201.56056581 514.21019373 C201.57647289 520.26216649 201.58120555 526.31408503 201.57732054 532.36607715 C201.57540669 535.85324376 201.57825679 539.34022656 201.59443283 542.82736015 C201.60943924 546.61960446 201.60573992 550.41140365 201.59757996 554.20365906 C201.60631848 555.29027618 201.615057 556.3768933 201.62406033 557.49643821 C201.53155137 573.48857632 197.13157326 586.59455363 186.02587891 598.19165039 C172.60172101 610.45012511 156.23132748 612.35118168 138.91059875 612.23973083 C137.21090757 612.2436326 135.51121967 612.24928001 133.81153935 612.25650173 C129.18243172 612.27114826 124.55366801 612.26114008 119.92457187 612.24676502 C114.91636288 612.23559741 109.90819987 612.24761677 104.8999939 612.25660706 C95.10615172 612.27050136 85.31243896 612.26301198 75.518603 612.24793147 C64.10406126 612.23102762 52.68955135 612.23428707 41.27500095 612.23802555 C20.90539448 612.24389695 0.53584992 612.22975977 -19.83374023 612.20507812 C-39.58376383 612.18115002 -59.33370474 612.17407849 -79.08374023 612.18457031 C-100.61305041 612.19598691 -122.14232239 612.19790113 -143.67163211 612.18347222 C-145.96839797 612.18194644 -148.26516384 612.18042608 -150.5619297 612.17891121 C-151.69186566 612.17815339 -152.82180162 612.17739558 -153.98597806 612.1766148 C-161.93645035 612.17187846 -169.88690553 612.17371873 -177.83737755 612.17797661 C-187.52816674 612.18290983 -197.21887787 612.17688934 -206.90964922 612.15708231 C-211.85090274 612.1472306 -216.79203754 612.14208234 -221.73329735 612.14997482 C-226.26140177 612.15705931 -230.7892672 612.15016259 -235.31734023 612.13237119 C-236.95033363 612.12834467 -238.58334901 612.1292962 -240.21633407 612.13589006 C-258.08996439 612.20185402 -272.27416072 608.69688708 -285.54052734 596.08227539 C-296.5468394 584.47632243 -298.92412223 570.50718428 -298.88343811 555.04544067 C-298.88429254 553.86016749 -298.88514696 552.67489431 -298.88602728 551.45370376 C-298.88738794 548.17219027 -298.88426895 544.89071643 -298.87924922 541.60920763 C-298.87492603 538.06735773 -298.87639247 534.52550964 -298.87715149 530.98365784 C-298.87767554 524.8499419 -298.87454115 518.71623661 -298.86891365 512.58252335 C-298.86078256 503.71423175 -298.85818178 494.8459453 -298.85692566 485.97765039 C-298.85473767 471.58901987 -298.84808444 457.20039502 -298.83862305 442.81176758 C-298.82944238 428.83553089 -298.82236475 414.85929574 -298.81811523 400.88305664 C-298.81785251 400.02139126 -298.81758979 399.15972588 -298.8173191 398.27194943 C-298.81601405 393.94917665 -298.81475035 389.62640386 -298.8135072 385.30363107 C-298.80314247 349.44859184 -298.78553103 313.59355906 -298.76318359 277.73852539 C-299.40416992 277.74740784 -300.04515625 277.75629028 -300.70556641 277.76544189 C-307.45547447 277.85482983 -314.20521096 277.91463373 -320.95556641 277.95825195 C-323.46540165 277.97820704 -325.97519139 278.00538092 -328.48486328 278.0402832 C-348.80799272 278.31557659 -368.66938574 278.38482639 -384.45068359 263.80102539 C-393.99076069 254.13445739 -398.57107239 241.89526285 -399.07568359 228.42602539 C-398.73538597 213.3678555 -393.28635008 200.77279137 -382.53585815 190.30438232 C-376.7991329 185.23695979 -370.10257225 181.27951023 -363.66650391 177.17529297 C-359.73984285 174.6710173 -355.83613209 172.13189378 -351.93063354 169.5947876 C-349.89653031 168.27369407 -347.86130242 166.95433065 -345.82498169 165.63665771 C-336.43706498 159.55523653 -327.16208116 153.31427141 -317.90719604 147.03289795 C-301.69307684 136.02910311 -285.38256576 125.18159042 -269.00292969 114.42602539 C-255.35566021 105.46147677 -241.78420572 96.39227956 -228.26318359 87.23852539 C-212.91876201 76.85032679 -197.4921545 66.59690855 -182.00292969 56.42602539 C-168.35562859 47.46145599 -154.78552199 38.3903693 -141.26318359 29.23852539 C-127.12242047 19.67603921 -112.95779321 10.15062943 -98.72607422 0.72387695 C-96.81938655 -0.54018636 -94.91422764 -1.80655921 -93.01074219 -3.07543945 C-56.60316438 -27.33199629 -35.65391528 -24.285668 0 0 Z " fill="#FEFEFE" transform="translate(560.76318359375,217.261474609375)"/>
</g>
</svg>
